<svg xmlns="http://www.w3.org/2000/svg" viewBox="0 0 64 64">
  <defs>
    <linearGradient id="bg" x1="8" y1="6" x2="58" y2="60" gradientUnits="userSpaceOnUse">
      <stop stop-color="#f72585"/>
      <stop offset="0.55" stop-color="#c026d3"/>
      <stop offset="1" stop-color="#7c3aed"/>
    </linearGradient>
    <linearGradient id="shine" x1="18" y1="10" x2="42" y2="48" gradientUnits="userSpaceOnUse">
      <stop stop-color="#fff" stop-opacity="0.55"/>
      <stop offset="1" stop-color="#fff" stop-opacity="0"/>
    </linearGradient>
  </defs>
  <rect x="3" y="3" width="58" height="58" rx="17" fill="url(#bg)"/>
  <path d="M13 15c10-8 26-8 37 1 5 4 7 10 7 16-7-9-18-14-31-13-5 0-10 1-13 3z" fill="url(#shine)"/>
  <path d="M17 19.5h24.5a7.5 7.5 0 0 1 7.5 7.5v12a7.5 7.5 0 0 1-7.5 7.5H31l-8.7 6v-6H17A7.5 7.5 0 0 1 9.5 39V27a7.5 7.5 0 0 1 7.5-7.5z" fill="#fff" fill-opacity="0.96"/>
  <path d="M20.2 40 27 23.5h3.8L37.6 40h-4.2l-1.3-3.6h-6.7L24.1 40zm6.5-7.1h4.1l-2-5.8z" fill="#b5179e"/>
  <path d="M40 25.5v3M38.5 27h3" stroke="#f59e0b" stroke-width="2" stroke-linecap="round"/>
</svg>
